<?xml version="1.0" standalone="no"?>
<!DOCTYPE svg PUBLIC "-//W3C//DTD SVG 20010904//EN"
 "http://www.w3.org/TR/2001/REC-SVG-20010904/DTD/svg10.dtd">
<svg version="1.0" xmlns="http://www.w3.org/2000/svg"
 width="500.000000pt" height="500.000000pt" viewBox="0 0 500.000000 500.000000"
 preserveAspectRatio="xMidYMid meet">
<metadata>
Created by potrace 1.16, written by Peter Selinger 2001-2019
</metadata>
<g transform="translate(0.000000,500.000000) scale(0.100000,-0.100000)"
fill="#000000" stroke="none">
<path d="M2361 4580 c-525 -43 -980 -254 -1344 -624 -325 -330 -524 -739 -582
-1196 -25 -197 -17 -488 20 -660 119 -565 435 -1030 918 -1353 106 -71 355
-190 487 -232 63 -20 169 -49 235 -63 113 -25 136 -26 395 -27 305 0 390 10
600 72 481 141 932 488 1188 915 135 226 219 440 274 703 21 99 23 137 23 380
0 222 -3 288 -19 370 -153 813 -758 1458 -1556 1660 -194 49 -444 70 -639 55z
m959 -275 c-10 -12 -7 -14 20 -10 21 2 37 -2 49 -14 9 -9 24 -16 32 -13 12 3
12 2 0 -6 -11 -8 -9 -11 8 -17 11 -3 25 -4 29 -1 5 3 19 -4 30 -15 12 -11 22
-17 22 -14 0 3 9 1 20 -5 11 -6 18 -16 14 -21 -3 -6 1 -9 9 -7 17 4 117 -59
117 -73 0 -6 4 -8 9 -5 5 3 12 -1 15 -10 3 -9 11 -12 18 -8 7 4 4 -2 -6 -14
-19 -22 -9 -31 11 -11 9 9 16 8 28 -5 9 -9 12 -16 6 -16 -5 0 -13 5 -16 10 -4
6 -11 8 -16 4 -5 -3 -7 -10 -4 -15 9 -13 -7 -10 -28 5 -14 11 -15 15 -5 19 7
3 4 5 -7 4 -11 -2 -25 -6 -31 -10 -6 -3 -23 4 -37 17 -14 13 -28 21 -31 18 -3
-3 -6 -1 -6 5 0 6 -9 13 -20 16 -11 3 -20 12 -20 21 0 10 6 13 15 10 8 -4 13
-10 10 -14 -8 -14 28 -21 37 -8 6 10 10 10 16 1 5 -8 13 -9 22 -3 8 6 12 10 8
11 -5 1 -12 3 -18 4 -5 1 -15 3 -21 4 -5 0 -7 6 -3 13 5 7 0 9 -14 6 -15 -4
-19 -2 -15 9 5 13 2 13 -19 -1 -13 -9 -28 -13 -32 -9 -4 4 -4 -1 0 -12 8 -19
7 -19 -10 -3 -9 10 -28 21 -42 24 -13 3 -24 10 -24 16 0 5 -4 7 -8 4 -5 -3
-21 4 -38 15 -16 10 -24 19 -19 19 6 0 16 -5 22 -11 6 -6 25 -12 41 -14 25 -2
30 1 29 16 -1 21 -17 26 -17 7 -1 -9 -5 -8 -13 3 -20 26 -88 55 -73 31 2 -4 1
-14 -5 -22 -6 -11 -9 -12 -9 -2 0 8 -5 10 -12 6 -8 -5 -9 -2 -5 9 3 10 2 17
-2 17 -5 0 -11 -4 -13 -9 -4 -13 -72 21 -75 37 -2 6 2 12 7 12 6 0 10 -6 10
-12 0 -9 4 -8 10 2 5 8 10 11 10 7 0 -5 10 -1 22 7 28 20 34 20 18 1z m-921
-152 l-41 -66 60 -60 59 -59 8 127 7 127 77 -6 c201 -17 192 -14 189 -50 l-3
-31 -75 3 c-41 2 -83 6 -92 8 -13 4 -18 0 -18 -15 0 -17 6 -21 34 -21 18 0 54
-3 80 -6 42 -6 46 -9 46 -34 l0 -28 -85 6 c-72 4 -85 2 -85 -10 0 -19 41 -28
126 -28 l64 0 0 -36 0 -37 -102 8 c-57 4 -140 9 -186 10 -81 2 -84 3 -121 39
l-38 37 -32 -50 c-26 -43 -36 -51 -60 -51 -16 0 -37 -3 -47 -7 -14 -5 -11 6
15 53 19 32 39 67 45 76 9 15 2 27 -42 71 -28 29 -52 56 -52 60 0 4 22 7 49 7
45 0 53 -3 77 -35 14 -19 30 -32 35 -29 5 3 18 23 29 44 20 38 34 46 92 49
l28 1 -41 -67z m536 7 c108 -30 153 -54 161 -86 10 -38 -11 -73 -46 -81 -27
-5 -28 -7 -14 -18 13 -9 16 -22 12 -59 -3 -26 -8 -49 -11 -52 -3 -3 -20 -1
-38 4 -32 8 -34 11 -34 52 0 40 -2 44 -35 56 -60 22 -78 18 -88 -18 -8 -30
-12 -33 -42 -30 -19 1 -36 5 -38 7 -5 4 55 229 66 248 2 5 9 6 16 4 7 -3 48
-15 91 -27z m-831 -84 c17 -49 25 -89 21 -106 -12 -57 -111 -120 -187 -120
-37 0 -84 24 -99 51 -9 18 -59 157 -59 165 0 4 71 26 74 22 2 -1 13 -34 26
-71 27 -84 52 -104 105 -87 20 6 42 22 50 34 14 20 13 30 -10 96 -14 40 -25
77 -25 80 0 10 64 28 71 21 4 -3 18 -42 33 -85z m1597 -51 c11 -4 23 -4 26 -1
4 3 15 -1 25 -11 10 -9 18 -13 18 -8 0 4 7 2 15 -5 10 -9 15 -9 15 -1 0 11
-14 15 -35 11 -5 -1 -4 5 3 12 11 11 18 7 40 -20 15 -18 34 -32 42 -32 12 -1
11 -3 -3 -11 -24 -14 -12 -32 13 -19 30 16 34 -7 6 -34 -20 -21 -22 -27 -10
-37 12 -10 13 -9 8 5 -5 13 -2 17 12 14 11 -2 18 2 17 9 -4 21 24 8 59 -28 19
-20 32 -41 30 -48 -2 -6 2 -10 8 -9 7 2 15 -4 17 -12 4 -13 3 -13 -7 0 -9 12
-10 9 -8 -15 2 -16 9 -31 16 -31 6 -1 15 -3 20 -4 4 -1 13 -3 21 -4 17 -1 28
-26 11 -26 -6 0 -8 -4 -5 -10 3 -5 -2 -10 -11 -10 -16 0 -16 1 1 20 10 11 14
20 9 20 -5 0 -17 -9 -26 -19 -14 -16 -14 -20 -2 -25 8 -3 14 -12 14 -21 0 -8
5 -15 10 -15 6 0 10 -6 10 -14 0 -25 16 -27 36 -4 19 21 19 21 -3 16 -24 -6
-41 18 -24 35 12 12 45 1 37 -12 -3 -5 1 -14 9 -21 8 -7 15 -18 15 -24 0 -7
-3 -6 -9 2 -6 10 -12 7 -24 -12 -12 -18 -14 -27 -5 -32 7 -4 8 -3 4 5 -4 6 0
14 9 17 23 9 27 1 9 -25 l-16 -22 -26 38 c-14 21 -44 61 -66 88 -22 28 -31 43
-21 33 17 -13 22 -14 32 -3 8 9 9 16 3 20 -6 3 -10 1 -10 -6 0 -8 -5 -7 -17 3
-10 9 -25 13 -33 11 -13 -4 -13 -3 0 9 18 16 25 48 10 48 -5 0 -10 -6 -10 -13
0 -8 -7 -14 -15 -14 -8 0 -12 4 -9 9 3 4 -6 12 -20 18 -15 5 -25 15 -24 22 2
7 -2 12 -8 11 -18 -3 -107 95 -100 112 5 13 -14 20 -45 17 -4 -1 -6 6 -5 16 1
11 -8 18 -22 20 -25 4 -62 31 -62 45 0 5 7 2 15 -7 8 -8 24 -18 36 -21z
m-2448 -16 c1 3 10 0 20 -5 17 -10 17 -12 2 -24 -13 -11 -15 -10 -9 4 4 11 1
16 -11 16 -9 0 -13 -5 -9 -11 3 -6 -5 -3 -20 6 -14 10 -26 13 -26 7 0 -6 8
-16 18 -21 10 -6 12 -11 4 -11 -7 0 -10 -5 -7 -10 4 -6 12 -7 18 -4 7 4 -38
-44 -100 -105 -62 -62 -112 -114 -112 -117 -1 -10 -34 -54 -38 -50 -3 2 3 16
12 29 16 24 15 26 -5 37 l-22 12 21 14 c12 9 21 20 21 26 0 6 -10 3 -22 -8
l-23 -19 20 23 c17 21 21 21 31 8 6 -9 14 -13 18 -9 3 3 -2 15 -11 26 -17 19
-17 19 4 7 18 -11 24 -12 37 -1 12 10 16 10 16 2 0 -7 5 -9 11 -5 8 4 7 9 -2
15 -7 4 -16 6 -19 4 -3 -1 -11 3 -17 11 -8 8 -9 15 -3 19 6 3 10 1 10 -4 0 -6
5 -11 11 -11 6 0 8 8 5 18 -5 13 8 30 45 63 28 24 63 57 77 72 25 27 27 27 40
10 7 -10 14 -16 15 -14z m2052 7 c127 -59 161 -162 80 -243 -29 -29 -39 -33
-87 -33 -96 0 -208 88 -208 162 0 44 29 98 64 119 41 25 90 24 151 -5z m-1542
-63 c26 -43 56 -92 68 -110 l20 -32 -30 -16 c-29 -14 -39 -14 -142 6 -61 11
-112 19 -114 17 -2 -2 14 -33 37 -68 l40 -64 -28 -23 c-16 -12 -32 -19 -35
-15 -4 4 -36 54 -72 111 l-66 105 34 23 34 23 101 -21 c56 -11 104 -19 106
-16 3 3 -11 31 -32 62 l-37 58 24 18 c13 10 29 19 34 19 6 0 31 -35 58 -77z
m1810 -119 c40 -20 104 -81 123 -116 15 -29 18 -76 6 -95 -10 -15 -72 40 -72
65 0 20 -41 62 -77 81 -38 19 -28 -9 22 -68 78 -92 92 -134 54 -172 -29 -29
-76 -20 -138 25 -81 59 -125 141 -101 186 l12 22 29 -28 c16 -15 29 -35 29
-45 0 -20 83 -99 105 -99 24 0 18 11 -35 74 -49 56 -80 105 -80 124 0 5 9 21
21 36 24 30 55 33 102 10z m-2094 -119 c70 -81 81 -98 70 -111 -35 -42 -44
-38 -132 62 l-85 96 26 24 c15 13 29 24 32 24 3 0 43 -43 89 -95z m-217 -167
l70 -63 52 59 53 59 26 -18 c15 -9 27 -20 27 -22 0 -12 -155 -178 -164 -175
-12 4 -184 155 -185 163 -1 8 39 59 46 59 2 0 36 -28 75 -62z m733 -46 c-6 -5
-41 -31 -80 -60 -113 -82 -219 -201 -269 -301 -41 -80 -41 -100 0 -43 20 29
39 50 42 48 2 -3 -6 -33 -18 -67 -26 -77 -63 -235 -81 -349 -17 -107 -18 -460
-1 -550 25 -132 25 -130 -3 -80 l-26 45 7 -35 c3 -19 16 -65 28 -102 12 -38
19 -68 15 -68 -4 0 -21 17 -38 38 -70 84 36 -136 122 -253 l29 -40 -37 40
c-184 197 -282 420 -306 694 -37 420 175 824 554 1053 60 37 81 47 62 30z
m748 -523 c45 -30 138 -125 158 -161 5 -10 -38 21 -96 67 -97 78 -143 109
-103 69 15 -15 15 -20 -2 -60 -11 -24 -25 -72 -32 -106 -8 -39 -21 -70 -33
-80 -18 -16 -18 -17 -2 -18 9 0 48 -14 85 -32 37 -18 72 -34 77 -36 6 -2 -6
10 -25 27 -19 16 -43 33 -53 36 -29 10 -9 25 35 25 38 0 40 1 34 25 -4 17 -2
25 6 25 7 0 14 -13 15 -29 2 -28 -1 -30 -35 -33 l-37 -3 44 -23 c24 -13 65
-44 91 -68 l48 -45 7 50 7 49 29 -10 c41 -14 138 -105 146 -136 6 -25 6 -25
14 -5 4 12 1 51 -7 90 -8 37 -14 69 -14 69 0 1 21 -3 47 -7 45 -9 149 -66 139
-77 -3 -3 -11 0 -18 5 -7 5 -33 18 -57 27 l-44 17 45 -53 c25 -29 72 -91 105
-138 34 -47 83 -106 109 -132 26 -27 41 -48 33 -48 -8 0 -52 21 -98 45 -46 25
-78 38 -71 30 7 -9 10 -18 7 -21 -10 -11 -114 43 -155 80 l-40 37 13 -48 c18
-66 52 -142 81 -180 30 -40 30 -45 -2 -32 l-27 10 27 -36 c14 -19 37 -50 50
-67 31 -42 86 -152 86 -173 0 -14 -3 -14 -30 0 -16 8 -33 15 -37 15 -4 0 -9
-27 -10 -60 -4 -93 -16 -101 -38 -28 l-20 63 -6 -60 c-6 -67 -34 -128 -74
-165 l-27 -25 6 40 c3 22 2 47 -4 55 -8 12 -10 9 -10 -12 0 -14 -16 -57 -35
-94 -19 -37 -34 -69 -32 -71 2 -2 36 10 76 26 74 30 88 26 46 -13 -39 -37
-252 -144 -288 -146 -4 0 4 17 17 38 29 43 49 123 44 179 l-3 38 -20 -35 -20
-35 -3 33 c-4 39 -14 41 -38 5 -29 -45 -116 -133 -130 -133 -10 0 -14 13 -14
39 0 22 -4 42 -8 45 -4 2 -20 -17 -34 -43 -15 -26 -54 -77 -88 -114 -53 -58
-67 -67 -96 -67 l-34 0 39 36 c22 19 49 51 60 70 l21 35 -21 -6 -22 -7 19 28
c11 16 27 45 36 66 17 36 17 36 -9 42 -19 5 -23 11 -17 24 4 9 14 36 22 60 9
26 20 42 31 42 25 0 61 29 61 49 0 20 -32 52 -75 74 -37 19 -153 42 -162 33
-4 -4 3 -9 15 -13 31 -8 27 -19 -10 -34 -18 -6 -49 -18 -68 -26 -19 -7 -57
-20 -84 -28 l-50 -15 30 32 c21 23 24 29 10 24 -62 -22 -108 -28 -132 -17 -26
12 -63 81 -64 118 0 28 -14 37 -40 23 -11 -6 -20 -8 -20 -4 0 18 115 176 146
202 l35 29 4 99 c3 89 2 97 -11 79 -13 -17 -16 -18 -24 -5 -18 28 -10 53 41
144 29 50 54 93 58 96 3 3 21 29 38 58 32 51 29 57 -11 23 -18 -15 -18 -14
-11 36 6 47 5 52 -16 58 -22 7 -22 8 -4 21 22 16 39 19 30 5 -3 -5 -1 -12 4
-15 5 -4 7 -23 4 -43 l-6 -36 31 23 c16 12 35 19 41 16 14 -9 14 -8 -5 48 -19
56 -13 68 21 36 24 -22 27 -23 82 -10 32 7 90 12 129 12 l72 -1 12 67 c7 37
15 70 17 75 8 14 30 7 76 -24z m-1244 -1166 c-3 -21 2 -32 14 -27 8 3 20 -2
27 -11 7 -8 9 -15 5 -15 -5 0 11 -18 35 -40 24 -22 37 -40 30 -40 -7 0 -10 -3
-6 -7 4 -5 11 -8 14 -8 12 0 102 -79 102 -89 0 -5 8 -15 18 -23 9 -8 11 -12 5
-8 -16 8 -17 -7 -2 -22 6 -6 18 -9 25 -6 12 4 12 8 2 21 -7 9 2 6 20 -7 33
-23 39 -35 22 -46 -6 -4 -8 -11 -4 -16 3 -5 10 -6 16 -3 7 4 8 2 4 -5 -8 -12
-8 -12 -73 32 -27 19 -40 34 -36 43 6 17 -25 56 -39 48 -5 -3 -2 -15 8 -25 22
-25 13 -24 -16 1 -13 11 -18 20 -11 20 7 0 9 5 5 12 -4 7 -3 8 4 4 7 -4 12 -3
12 3 0 18 -17 21 -30 6 -10 -12 -16 -13 -26 -4 -10 8 -11 15 -4 24 7 9 7 15 1
19 -5 4 -13 1 -16 -5 -12 -18 -56 31 -45 50 5 10 6 21 2 27 -9 12 -32 16 -32
5 0 -5 6 -12 13 -14 7 -4 8 -6 1 -6 -20 -2 -39 28 -26 41 14 14 16 32 3 23
-11 -6 -42 35 -35 47 6 10 14 11 13 1z m995 -103 c23 -57 21 -60 -26 -60 -24
0 -125 -7 -225 -17 l-183 -17 -25 24 c-13 12 -22 27 -19 31 2 4 42 5 87 2 70
-4 95 -1 172 22 88 26 184 52 196 54 4 1 14 -17 23 -39z m-1143 -114 c75 -50
131 -170 100 -216 -8 -12 -15 -10 -41 15 -17 16 -30 39 -30 53 0 33 -70 102
-102 102 -37 0 -72 -42 -64 -77 10 -40 64 -93 95 -93 l25 0 -32 33 c-32 33
-32 34 -13 51 18 16 21 14 75 -45 31 -34 56 -65 56 -69 0 -3 -24 -27 -54 -53
-45 -38 -56 -44 -66 -32 -9 10 -8 20 4 42 l14 29 -39 1 c-51 2 -101 41 -130
99 -25 52 -21 97 13 139 46 59 119 67 189 21z m2382 -27 c45 -11 106 -27 135
-36 l54 -15 -28 -29 c-22 -23 -34 -28 -54 -24 -22 5 -33 -2 -67 -42 -34 -41
-39 -51 -30 -71 8 -18 6 -28 -9 -49 -11 -15 -25 -28 -30 -30 -8 -3 -114 234
-114 256 0 13 40 61 52 61 5 0 46 -9 91 -21z m-2179 -180 l26 -20 -45 -63
c-25 -35 -45 -73 -45 -84 0 -32 49 -72 87 -72 28 0 38 8 74 58 23 31 45 61 49
66 5 4 22 -2 39 -15 l30 -22 -41 -59 c-23 -33 -55 -70 -71 -84 -53 -44 -135
-24 -207 51 -30 31 -35 43 -35 83 0 40 7 57 48 115 27 37 52 67 57 67 4 0 19
-9 34 -21z m1928 -153 l26 -31 63 49 63 49 18 -23 c10 -12 18 -26 18 -30 0
-15 -181 -153 -190 -144 -4 5 -36 45 -70 89 -35 44 -68 86 -74 94 -8 10 -3 19
19 39 l29 25 36 -44 c19 -24 47 -57 62 -73z m-141 -87 l111 -82 -36 -19 c-33
-17 -39 -17 -58 -4 -19 14 -26 12 -79 -15 -51 -25 -59 -33 -59 -57 0 -22 -7
-32 -35 -45 l-35 -17 0 93 c0 50 -3 115 -6 143 -6 49 -6 51 27 72 19 11 40 19
47 16 7 -2 62 -40 123 -85z m-1385 8 c6 -6 15 -287 10 -287 -23 0 -67 34 -72
56 -5 20 -21 32 -62 51 -51 22 -56 23 -73 7 -15 -13 -23 -14 -53 -4 -20 6 -36
15 -36 20 0 5 47 49 106 99 l105 91 37 -15 c20 -9 37 -17 38 -18z m1112 -139
c31 -130 31 -130 -19 -142 -26 -6 -27 -4 -46 72 l-19 77 -30 -90 c-22 -64 -36
-91 -49 -93 -11 -3 -41 19 -81 59 -35 35 -64 60 -64 56 0 -4 7 -37 16 -73 9
-36 14 -67 12 -70 -3 -3 -21 -7 -40 -10 l-34 -6 -28 121 c-15 66 -25 125 -22
130 3 5 25 12 47 16 40 7 43 6 105 -56 35 -35 65 -61 68 -58 2 2 15 40 28 84
23 74 27 81 59 92 65 23 65 24 97 -109z m-858 66 c74 -15 139 -30 144 -35 5
-4 6 -19 2 -34 -6 -25 -8 -26 -64 -19 l-57 6 -19 -92 -18 -92 -37 7 c-20 4
-37 8 -39 9 -1 2 6 44 17 95 l18 91 -26 6 c-70 16 -81 20 -81 27 0 4 0 18 0
32 0 14 6 25 13 25 6 0 73 -12 147 -26z m428 -61 l3 -33 -95 0 c-91 0 -96 -1
-96 -21 0 -20 4 -21 85 -17 l85 4 0 -28 c0 -27 -1 -28 -54 -28 -73 0 -116 -10
-116 -26 0 -11 22 -14 101 -14 l100 0 -3 -32 -3 -33 -137 -3 -138 -3 0 129 c0
71 3 132 7 136 4 3 63 5 132 4 l126 -3 3 -32z m-1390 -1 c3 -32 8 -38 24 -24
9 7 22 4 46 -13 18 -13 29 -26 24 -29 -5 -3 -7 -16 -5 -30 4 -17 10 -22 24
-19 24 7 24 19 2 32 -10 6 -14 11 -10 11 11 0 68 -39 87 -61 8 -9 24 -19 35
-22 13 -3 9 -5 -12 -6 -35 -1 -49 -14 -30 -28 17 -13 52 -10 50 4 -2 6 6 11
17 10 10 -1 16 -5 13 -11 -4 -5 0 -7 9 -4 8 4 28 -2 44 -13 16 -10 24 -19 17
-19 -6 0 -15 5 -19 11 -4 8 -9 8 -17 0 -13 -13 -30 -15 -23 -2 7 11 -14 20
-31 13 -7 -2 -13 -9 -13 -14 0 -6 7 -7 16 -4 8 3 12 2 9 -4 -3 -6 4 -10 16
-10 27 0 21 -9 -10 -15 -12 -2 -19 0 -16 6 6 8 -8 13 -27 10 -5 0 -8 6 -8 14
0 8 -3 14 -7 14 -5 -1 -11 0 -15 1 -5 1 -14 3 -20 4 -7 1 -12 8 -10 15 2 8 -3
11 -10 8 -8 -2 -24 4 -37 14 -17 14 -19 19 -8 19 9 0 18 4 21 9 4 5 -10 8 -30
7 -25 -2 -32 0 -25 7 6 6 11 18 11 26 -1 13 -2 13 -11 -1 -5 -10 -15 -18 -21
-18 -6 0 -5 6 3 16 7 9 14 26 16 37 3 22 3 22 -13 2 -8 -11 -18 -20 -22 -20
-4 0 -6 -7 -5 -15 1 -10 -3 -9 -13 5 -9 11 -20 19 -25 18 -5 -2 -10 2 -10 7
-3 19 -4 25 -10 35 -10 18 -19 45 -13 45 2 0 9 -12 15 -27 6 -16 13 -23 16
-16 2 7 0 20 -6 31 -7 14 -7 19 2 19 7 0 14 -12 15 -25z"/>
<path d="M3196 3949 c-29 -23 -33 -54 -11 -85 17 -25 74 -54 104 -54 28 0 61
34 61 63 0 27 -42 71 -83 86 -38 15 -40 14 -71 -10z"/>
<path d="M2620 2435 c-148 -21 -201 -49 -240 -126 -23 -44 -26 -62 -6 -36 12
16 19 17 56 7 83 -22 168 15 220 97 14 22 40 46 60 55 43 20 26 20 -90 3z"/>
<path d="M2887 2095 c-3 -31 -3 -72 0 -92 l6 -36 -77 6 -76 5 17 -30 c40 -68
112 -107 203 -109 l45 -1 -40 -10 c-22 -5 -63 -7 -92 -4 -47 5 -51 4 -46 -13
6 -23 -23 -87 -43 -95 -11 -4 -14 6 -14 49 0 56 -13 73 -24 33 -3 -13 -6 -40
-6 -60 0 -20 -4 -48 -10 -62 -6 -18 -6 -26 1 -26 36 0 115 71 124 110 6 27 9
28 79 32 60 3 86 10 152 42 78 39 78 40 49 48 -43 13 -95 40 -95 50 0 4 19 8
43 9 23 1 53 4 67 8 24 7 24 7 -10 28 -39 24 -85 70 -93 93 -3 9 -6 4 -6 -11
-1 -15 9 -38 20 -53 12 -15 19 -29 17 -31 -2 -3 -28 11 -56 31 -52 35 -112
105 -112 131 0 7 -4 13 -9 13 -4 0 -11 -25 -14 -55z"/>
</g>
</svg>
